# xmcd
#
# Track frame offsets:
#	300
#	12084
#	23858
#	36097
#	48336
#	61946
#	75556
#	86212
#	96868
#	109085
#	121302
#	131466
#	141630
#	155303
#	168976
#	183714
#
# Disc length: 2643 seconds
#
# Revision: 2
# Processed by: cddbd v1.5.2PL0 Copyright (c) Steve Scherf et al.
# Submitted via: audiograbber 1.83.01
#
DISCID=d30a4f10
DTITLE=Various Artist - K0741-KT6015
DYEAR=1900
DGENRE=
TTITLE0=Gibson, Don - Sea Of Heartbreak (vocal)
TTITLE1=Gibson, Don - Sea Of Heartbreak
TTITLE2=Paycheck, Johnny - Take This Job And Shove It (vocal)
TTITLE3=Paycheck, Johnny - Take This Job And Shove It
TTITLE4=McDaniel, Mel - Baby's Got Her Blue Jeans On (vocal)
TTITLE5=McDaniel, Mel - Baby's Got Her Blue Jeans On
TTITLE6=Young, Faron - Hello Walls (vocal)
TTITLE7=Young, Faron - Hello Walls
TTITLE8=Greene, Jack - There Goes My Everything (vocal)
TTITLE9=Greene, Jack - There Goes My Everything
TTITLE10=Locklin, Hank - Please, Help My I'm Falling (vocal)
TTITLE11=Locklin, Hank - Please, Help Me I'm Falling
TTITLE12=Houston, David - Almost Pesuaded (vocal)
TTITLE13=Houston, David - Almost Pesuaded 
TTITLE14=Greenwood, Lee - God BlessThe USA (vocal)
TTITLE15=Greenwood, Lee - God Bless The USA
EXTD=
EXTT0=
EXTT1=
EXTT2=
EXTT3=
EXTT4=
EXTT5=
EXTT6=
EXTT7=
EXTT8=
EXTT9=
EXTT10=
EXTT11=
EXTT12=
EXTT13=
EXTT14=
EXTT15=
PLAYORDER=
